<svg width="40" height="46" viewBox="0 0 40 46" fill="none" xmlns="http://www.w3.org/2000/svg">
<path d="M32.8571 36.1428V42.7143H6.57142V36.1428H3.28571V42.7143C3.28571 43.5857 3.63188 44.4214 4.24807 45.0376C4.86426 45.6538 5.69999 46 6.57142 46H32.8571C33.7286 46 34.5643 45.6538 35.1805 45.0376C35.7967 44.4214 36.1428 43.5857 36.1428 42.7143V36.1428H32.8571Z" fill="#7CB500"/>
<path d="M27.9286 31.2143L25.6056 28.8913L21.3571 33.1397V19.7143H18.0714V33.1397L13.823 28.8913L11.5 31.2143L19.7143 39.4286L27.9286 31.2143ZM39.4286 3.28571V0H29.5714V16.4286H32.8571V9.85714H37.7857V6.57143H32.8571V3.28571H39.4286ZM21.3571 16.4286H14.7857V0H21.3571C22.6639 0.00130478 23.9167 0.520983 24.8407 1.44499C25.7647 2.36899 26.2844 3.62183 26.2857 4.92857V11.5C26.2844 12.8067 25.7647 14.0596 24.8407 14.9836C23.9167 15.9076 22.6639 16.4273 21.3571 16.4286ZM18.0714 13.1429H21.3571C21.7927 13.1424 22.2103 12.9692 22.5183 12.6612C22.8263 12.3532 22.9996 11.9356 23 11.5V4.92857C22.9996 4.49299 22.8263 4.07538 22.5183 3.76738C22.2103 3.45938 21.7927 3.28615 21.3571 3.28571H18.0714V13.1429ZM8.21428 0H0V16.4286H3.28571V11.5H8.21428C9.08531 11.4987 9.92029 11.1521 10.5362 10.5362C11.1521 9.92029 11.4987 9.08531 11.5 8.21428V3.28571C11.4991 2.41456 11.1527 1.57933 10.5367 0.963324C9.92067 0.347322 9.08544 0.000869855 8.21428 0ZM3.28571 8.21428V3.28571H8.21428L8.21593 8.21428H3.28571Z" fill="#7CB500"/>
</svg>
