<svg width="16" height="17" viewBox="0 0 16 17" fill="none" xmlns="http://www.w3.org/2000/svg">
<path d="M15.5001 12.1901V14.4401C15.5009 14.6489 15.4581 14.8557 15.3745 15.0471C15.2908 15.2385 15.168 15.4103 15.0141 15.5515C14.8602 15.6927 14.6785 15.8002 14.4806 15.8671C14.2828 15.934 14.0731 15.9589 13.8651 15.9401C11.5572 15.6893 9.34032 14.9007 7.39257 13.6376C5.58044 12.4861 4.04407 10.9497 2.89257 9.13757C1.62506 7.18098 0.836254 4.95332 0.590072 2.63507C0.57133 2.42767 0.595978 2.21864 0.662447 2.02129C0.728916 1.82394 0.83575 1.64259 0.976146 1.48879C1.11654 1.33499 1.28743 1.2121 1.47791 1.12796C1.6684 1.04382 1.87433 1.00027 2.08257 1.00007H4.33257C4.69655 0.99649 5.04942 1.12538 5.32539 1.36272C5.60137 1.60006 5.78163 1.92966 5.83257 2.29007C5.92754 3.01012 6.10366 3.71712 6.35757 4.39757C6.45848 4.66602 6.48032 4.95776 6.4205 5.23823C6.36068 5.51871 6.22172 5.77616 6.02007 5.98007L5.06757 6.93257C6.13524 8.81023 7.68991 10.3649 9.56757 11.4326L10.5201 10.4801C10.724 10.2784 10.9814 10.1395 11.2619 10.0796C11.5424 10.0198 11.8341 10.0417 12.1026 10.1426C12.783 10.3965 13.49 10.5726 14.2101 10.6676C14.5744 10.719 14.9071 10.9025 15.145 11.1832C15.3828 11.4639 15.5092 11.8223 15.5001 12.1901Z" stroke="#666666" stroke-linecap="round" stroke-linejoin="round"/>
</svg>
